<svg xmlns="http://www.w3.org/2000/svg" width="109.728" height="139.079" viewBox="0 0 109.728 139.079">
  <path id="Intersection_6" data-name="Intersection 6" d="M26.215,137.666A69.094,69.094,0,0,1,1.362,127.2q-.686-.464-1.362-.944l2.864-4.15q.652.465,1.315.913a64.463,64.463,0,0,0,99.2-40.484,65.138,65.138,0,0,0,0-26,64.164,64.164,0,0,0-9.7-23.063A64.654,64.654,0,0,0,65.315,10.111a64.08,64.08,0,0,0-12.1-3.758A64.893,64.893,0,0,0,40.222,5.042q-1.647,0-3.291.083c-.044-1.7-.083-3.388-.113-5.042Q38.518,0,40.222,0A69.989,69.989,0,0,1,54.23,1.413,69.093,69.093,0,0,1,79.083,11.876a69.743,69.743,0,0,1,25.182,30.6,69.2,69.2,0,0,1,4.05,13.053,70.253,70.253,0,0,1,0,28.03A69.174,69.174,0,0,1,97.857,108.42a69.716,69.716,0,0,1-30.58,25.195,69.1,69.1,0,0,1-13.046,4.052,70.15,70.15,0,0,1-28.016,0Z" fill="#ffbf67"/>
</svg>
